<svg xmlns="http://www.w3.org/2000/svg" viewBox="0 0 72 72"><defs><style>.cls-1,.cls-2{fill:#222831;}.cls-1{fill-rule:evenodd;}</style></defs><title>Asset 9</title><g id="Layer_2" data-name="Layer 2"><g id="Layer_1-2" data-name="Layer 1"><path class="cls-1" d="M9.26,6.32H62.74a2.9,2.9,0,0,1,2.9,2.9V62.78a2.9,2.9,0,0,1-2.9,2.9H48.4a1.84,1.84,0,0,0-1.84,1.81v2.7A1.84,1.84,0,0,0,48.4,72H68.57A3.45,3.45,0,0,0,72,68.57V3.43A3.39,3.39,0,0,0,71,1a3.39,3.39,0,0,0-2.42-1H3.43A3.39,3.39,0,0,0,1,1,3.39,3.39,0,0,0,0,3.43V54.87A1.83,1.83,0,0,0,1.82,56.7H4.54a1.86,1.86,0,0,0,1.29-.54,1.83,1.83,0,0,0,.53-1.29V9.22a2.9,2.9,0,0,1,2.9-2.9Z"/><path class="cls-2" d="M57.76,11.93H14.24a2.32,2.32,0,0,0-2.31,2.31V57.76a2.32,2.32,0,0,0,2.31,2.31H57.76a2.32,2.32,0,0,0,2.31-2.31V14.24A2.32,2.32,0,0,0,57.76,11.93ZM24.28,45.64a5.08,5.08,0,0,0,2.3,1.9c1.37.36,4.41.14,6,.15L47,47.76a1.6,1.6,0,0,0,.57-.07,1.53,1.53,0,0,0,.77-.55,1.6,1.6,0,0,0,.3-.91,1.57,1.57,0,0,0-.3-.91,1.55,1.55,0,0,0-.77-.56l-.63-.07H31.8v0A1.81,1.81,0,0,1,30.74,44a1.85,1.85,0,0,1,0-2.35A1.81,1.81,0,0,1,31.8,41a2.19,2.19,0,0,1,.57,0H48.59c5.15,1.28,4.53,9.89,0,10.34H26.32a3.26,3.26,0,0,1-1.68-.26c-6.21-2.53-6.58-13.87.38-16.6a1.35,1.35,0,0,1,.69-.13H47.39l.24-.1a1.57,1.57,0,0,0,.54-.33,1.5,1.5,0,0,0,.37-.53,1.36,1.36,0,0,0-.14-1.54A1.55,1.55,0,0,0,47,31.14H24.47a2.52,2.52,0,0,1-1-.16c-4.87-1.6-5.5-8.49.55-10.28h25a3.88,3.88,0,0,1,.59,0,1.82,1.82,0,0,1,1.06.63,1.88,1.88,0,0,1,.43,1.16,1.83,1.83,0,0,1-.39,1.17,1.91,1.91,0,0,1-1,.67,2.46,2.46,0,0,1-.54,0h-24a1.32,1.32,0,0,0-.28,0,1.56,1.56,0,0,0-1.41,2.19,1.44,1.44,0,0,0,.58.66,1.18,1.18,0,0,0,.81.24h22a3.4,3.4,0,0,1,2.39.52c5.13,3,3.1,8.39-.73,9.79a2,2,0,0,1-.87.1H30.18c-.45,0-3.45-.07-3.6.16a5.14,5.14,0,0,0-2.3,7.61Z"/><path class="cls-2" d="M3,72a1.82,1.82,0,0,1-1.41-.53A2.18,2.18,0,0,1,1.14,70v-.46H2.35v.56c0,.52.23.79.67.79a.84.84,0,0,0,.27,0,.86.86,0,0,0,.22-.15A1,1,0,0,0,3.68,70a1.68,1.68,0,0,0-.23-.9,4.52,4.52,0,0,0-.86-.94,4.92,4.92,0,0,1-1.1-1.26,2.47,2.47,0,0,1-.32-1.27,2.1,2.1,0,0,1,.49-1.5,1.86,1.86,0,0,1,1.42-.53,1.77,1.77,0,0,1,1.39.53,2.18,2.18,0,0,1,.47,1.52V66H3.73v-.42a.91.91,0,0,0-.16-.6.48.48,0,0,0-.22-.15.46.46,0,0,0-.26,0c-.42,0-.64.26-.64.78a1.6,1.6,0,0,0,.24.82,4.8,4.8,0,0,0,.87.93,5,5,0,0,1,1.11,1.27A2.86,2.86,0,0,1,5,69.93a2.19,2.19,0,0,1-.5,1.54A1.89,1.89,0,0,1,3,72Zm3.08-8.26H7.39v7H9.5v1.16H6.11Zm4.42,0h1.28v8.14H10.53ZM15,72a1.8,1.8,0,0,1-1.4-.52A2.11,2.11,0,0,1,13.1,70V65.62a2.08,2.08,0,0,1,.48-1.47,1.81,1.81,0,0,1,1.4-.53,1.81,1.81,0,0,1,1.4.53,2,2,0,0,1,.49,1.47v.86H15.66v-.94c0-.51-.22-.76-.64-.76s-.64.25-.64.76v4.55c0,.5.21.74.64.74s.64-.24.64-.74V68.84h1.21V70a2.07,2.07,0,0,1-.49,1.48A1.79,1.79,0,0,1,15,72Zm3.07-8.26h3.49V64.9H19.33v2.15h1.76v1.17H19.33v2.5h2.21v1.16H18.05ZM26.37,72A1.84,1.84,0,0,1,25,71.47,2.14,2.14,0,0,1,24.46,70V65.67A2.14,2.14,0,0,1,25,64.15a2.18,2.18,0,0,1,2.85,0,2.09,2.09,0,0,1,.48,1.52v.7H27.07v-.78q0-.81-.66-.81t-.66.81V70c0,.53.22.8.66.8s.66-.27.66-.8V68.45h-.64V67.29h1.86V70a2.19,2.19,0,0,1-.49,1.52,1.83,1.83,0,0,1-1.43.53Zm5,0A1.84,1.84,0,0,1,30,71.47,2.19,2.19,0,0,1,29.47,70V63.74h1.29v6.31a.86.86,0,0,0,.17.6.7.7,0,0,0,1,0,.86.86,0,0,0,.17-.6V63.74h1.23V70a2.19,2.19,0,0,1-.49,1.52A1.82,1.82,0,0,1,31.38,72Zm4.41-3.58-1.55-4.68H35.6l.87,3h0l.87-3h1.25l-1.55,4.68v3.46H35.78V68.42ZM41.28,72a1.82,1.82,0,0,1-1.41-.53A2.18,2.18,0,0,1,39.39,70v-.46H40.6v.56c0,.52.22.79.66.79a.77.77,0,0,0,.27,0,.63.63,0,0,0,.23-.16.92.92,0,0,0,.17-.62,1.75,1.75,0,0,0-.23-.9,4.52,4.52,0,0,0-.86-.94,5.13,5.13,0,0,1-1.11-1.26,2.57,2.57,0,0,1-.31-1.27,2.1,2.1,0,0,1,.49-1.5,1.84,1.84,0,0,1,1.42-.53,1.79,1.79,0,0,1,1.39.53,2.23,2.23,0,0,1,.47,1.52V66H42v-.42a1,1,0,0,0-.16-.61.66.66,0,0,0-.22-.15.57.57,0,0,0-.26,0c-.43,0-.64.26-.64.78a1.54,1.54,0,0,0,.24.83,4.73,4.73,0,0,0,.86.93,4.63,4.63,0,0,1,1.11,1.27,2.79,2.79,0,0,1,.3,1.33,2.19,2.19,0,0,1-.49,1.54A1.86,1.86,0,0,1,41.28,72Z"/></g></g></svg>