<svg width="216" height="86" viewBox="0 0 216 86" fill="none" xmlns="http://www.w3.org/2000/svg">
<g filter="url(#filter0_d_30_979)">
<g filter="url(#filter1_i_30_979)">
<path d="M6.75311 2.84905C8.46338 0.949685 10.9871 0 14.3242 0C17.6613 0 20.185 0.949685 21.8952 2.84905C23.6055 4.74842 24.4606 7.46956 24.4606 11.0125V12.389H17.9533V10.5745C17.9533 9.07276 17.6613 7.97568 17.0773 7.29158C16.7553 6.93699 16.3573 6.65977 15.913 6.48063C15.4688 6.30149 14.9898 6.22507 14.5119 6.25707C14.034 6.22507 13.555 6.30149 13.1108 6.48063C12.6665 6.65977 12.2685 6.93699 11.9465 7.29158C11.3625 7.97568 11.0705 9.07276 11.0705 10.5745C11.0347 12.2958 11.5491 13.9836 12.5388 15.3924C13.8372 17.1106 15.3168 18.6839 16.9521 20.0852C18.3337 21.3401 19.6495 22.6655 20.8941 24.0564C21.9573 25.3076 22.8225 26.7144 23.4595 28.2277C24.1942 29.9879 24.5564 31.8812 24.5232 33.7882C24.5232 37.3339 23.6472 40.0564 21.8952 41.9558C20.1433 43.8551 17.5987 44.8034 14.2616 44.8007C10.9245 44.8007 8.37995 43.8524 6.62797 41.9558C4.87599 40.0592 4 37.3367 4 33.7882V31.0977H10.5074V34.2262C10.5074 37.0627 11.6962 38.481 14.0739 38.481C16.4516 38.481 17.6404 37.0627 17.6404 34.2262C17.6747 32.5044 17.1589 30.8166 16.1679 29.4082C14.8712 27.69 13.3929 26.1167 11.7588 24.7154C10.3762 23.4617 9.06036 22.1361 7.81682 20.7443C6.75344 19.4962 5.88821 18.0922 5.25141 16.5812C4.51557 14.8185 4.15338 12.9223 4.18771 11.0125C4.18771 7.46677 5.04285 4.74564 6.75311 2.84905Z" fill="white"/>
<path d="M35.3479 0.500488V38.0429H46.6732V44.3H28.4651V0.500488H35.3479Z" fill="white"/>
<path d="M56.5593 0.500488V44.3H49.6765V0.500488H56.5593Z" fill="white"/>
<path d="M81.5252 33.7882C81.5252 37.3339 80.6478 40.0564 78.893 41.9558C77.1383 43.8551 74.5951 44.8034 71.2636 44.8007C67.9265 44.8007 65.3819 43.8524 63.6299 41.9558C61.8779 40.0592 61.002 37.3367 61.002 33.7882V11.0125C61.002 7.46677 61.8779 4.74564 63.6299 2.84905C65.3819 0.952466 67.9265 0.00278092 71.2636 0C74.6007 0 77.1438 0.949685 78.893 2.84905C80.6422 4.74842 81.5196 7.46956 81.5252 11.0125V15.2673H75.0178V10.5745C75.0178 7.6962 73.829 6.25707 71.4513 6.25707C69.0736 6.25707 67.8847 7.6962 67.8847 10.5745V34.2262C67.8847 37.0627 69.0736 38.481 71.4513 38.481C73.829 38.481 75.0178 37.0627 75.0178 34.2262V27.9691H81.5252V33.7882Z" fill="white"/>
<path d="M102.027 18.9589V25.2159H92.5959V38.0429H104.484V44.3H85.7131V0.500488H104.484V6.75756H92.5959V18.9589H102.027Z" fill="white"/>
<path d="M138.398 19.8975V33.7882C138.398 37.3339 137.522 40.0564 135.77 41.9558C134.018 43.8551 131.473 44.8034 128.136 44.8007C124.799 44.8007 122.255 43.8524 120.503 41.9558C118.751 40.0592 117.876 37.3367 117.879 33.7882V11.0125C117.879 7.46677 118.755 4.74564 120.507 2.84905C122.259 0.952466 124.802 0.00278092 128.136 0C131.473 0 134.018 0.949685 135.77 2.84905C137.522 4.74842 138.398 7.46956 138.398 11.0125V15.2673H131.891V10.5745C131.891 7.6962 130.696 6.25707 128.307 6.25707C125.919 6.25707 124.73 7.6962 124.741 10.5745V34.2262C124.741 37.0627 125.93 38.481 128.307 38.481C130.685 38.481 131.874 37.0627 131.874 34.2262V26.1546H128.745V19.8975H138.398Z" fill="white"/>
<path d="M149.41 34.2887C149.41 37.1252 150.599 38.5435 152.977 38.5435C155.354 38.5435 156.543 37.1252 156.543 34.2887V0.500488H163.051V33.8715C163.051 37.4172 162.175 40.1397 160.423 42.0391C158.671 43.9385 156.126 44.8868 152.789 44.884C149.452 44.884 146.907 43.9357 145.155 42.0391C143.403 40.1425 142.527 37.42 142.527 33.8715V0.500488H149.41V34.2887Z" fill="white"/>
<path d="M165.491 0.500488H172.687L177.947 20.4606L183.198 0.500488H189.768L181.071 29.7836V44.3H174.192V29.7836L165.491 0.500488Z" fill="white"/>
<path d="M193.773 2.84905C195.483 0.949685 198.007 0 201.344 0C204.681 0 207.205 0.949685 208.915 2.84905C210.625 4.74842 211.48 7.46956 211.48 11.0125V12.389H204.973V10.5745C204.973 9.07276 204.681 7.97568 204.097 7.29158C203.408 6.62831 202.488 6.2578 201.532 6.2578C200.575 6.2578 199.656 6.62831 198.966 7.29158C198.382 7.97568 198.09 9.07276 198.09 10.5745C198.056 12.2962 198.572 13.984 199.563 15.3924C200.86 17.1106 202.338 18.684 203.972 20.0852C205.354 21.3401 206.669 22.6655 207.914 24.0564C208.977 25.3076 209.842 26.7144 210.479 28.2277C211.214 29.9879 211.576 31.8812 211.543 33.7882C211.543 37.3339 210.667 40.0564 208.915 41.9558C207.163 43.8551 204.618 44.8034 201.281 44.8007C197.944 44.8007 195.4 43.8524 193.648 41.9558C191.896 40.0592 191.02 37.3367 191.02 33.7882V31.0977H197.527V34.2262C197.527 37.0627 198.716 38.481 201.094 38.481C203.471 38.481 204.655 37.0627 204.644 34.2262C204.679 32.5049 204.165 30.817 203.175 29.4082C201.877 27.6901 200.397 26.1168 198.762 24.7154C197.379 23.4617 196.063 22.1361 194.82 20.7443C193.756 19.4937 192.891 18.0868 192.255 16.5729C191.519 14.8102 191.156 12.914 191.191 11.0041C191.202 7.46399 192.063 4.74564 193.773 2.84905Z" fill="white"/>
</g>
<g filter="url(#filter2_i_30_979)">
<path d="M22.2373 63.0723H25.6161C26.7591 63.0723 27.6142 63.3782 28.1815 63.99C28.7488 64.6018 29.0311 65.4986 29.0283 66.6805V68.1196C29.0283 69.2988 28.7433 70.1956 28.1732 70.8102C27.6031 71.4248 26.7507 71.7376 25.6161 71.7487H24.5316V77.6721H22.2373V63.0723ZM25.6161 69.6631C25.7694 69.673 25.923 69.6502 26.0669 69.5963C26.2107 69.5423 26.3414 69.4584 26.4504 69.3502C26.6675 69.0403 26.7667 68.6631 26.7299 68.2865V66.5345C26.7667 66.158 26.6675 65.7807 26.4504 65.4708C26.3414 65.3626 26.2107 65.2787 26.0669 65.2248C25.923 65.1708 25.7694 65.1481 25.6161 65.158H24.5316V69.6631H25.6161Z" fill="#FFE500"/>
<path d="M36.5369 63.0723H38.8311V77.6721H36.5369V63.0723Z" fill="#FFE500"/>
<path d="M46.3479 75.6281L50.6028 65.158H46.5482V63.0723H53.0555V65.1162L48.8007 75.5864H53.0555V77.6721H46.3396L46.3479 75.6281Z" fill="#FFE500"/>
<path d="M60.2595 75.6281L64.5143 65.158H60.4681V63.0723H66.988V65.1162L62.7332 75.5864H66.988V77.6721H60.272L60.2595 75.6281Z" fill="#FFE500"/>
<path d="M76.2983 63.0723H79.406L81.7837 77.6721H79.5019L79.0848 74.773V74.8147H76.4777L76.0605 77.6721H73.9331L76.2983 63.0723ZM78.8011 72.8333L77.7791 65.6168H77.7374L76.7363 72.8333H78.8011Z" fill="#FFE500"/>
<path d="M99.241 77.0249C98.7596 76.2829 98.5326 75.4044 98.5944 74.5221V72.9996C98.5723 72.3375 98.7081 71.6798 98.9907 71.0807C99.2663 70.5573 99.7275 70.1556 100.284 69.9544V69.9127C99.7668 69.7144 99.3406 69.3328 99.0867 68.8407C98.8063 68.2441 98.6732 67.5889 98.6987 66.9302V66.659C98.6987 65.4799 98.9768 64.5831 99.533 63.9685C100.089 63.3539 100.944 63.048 102.098 63.0508H104.726V65.1365H102.14C101.981 65.1264 101.821 65.151 101.672 65.2086C101.523 65.2662 101.388 65.3555 101.277 65.4702C101.045 65.7819 100.937 66.1681 100.972 66.5548V67.4516C100.931 67.8776 101.055 68.3033 101.318 68.6405C101.457 68.767 101.619 68.8637 101.797 68.9247C101.974 68.9857 102.162 69.0096 102.349 68.995H103.279V67.3682H105.531V68.995H106.178V71.0807H105.531V75.9195C105.527 76.2579 105.541 76.5963 105.573 76.9332C105.603 77.1955 105.673 77.4516 105.782 77.6924H103.487C103.364 77.3218 103.294 76.9356 103.279 76.5452H103.237C103.034 76.9495 102.738 77.2998 102.374 77.5672C102.009 77.7993 101.583 77.9156 101.151 77.9009C100.786 77.9234 100.42 77.8552 100.086 77.7024C99.7532 77.5496 99.4628 77.3169 99.241 77.0249ZM103.266 74.4804V71.1016H102.39C102.18 71.0801 101.968 71.1065 101.769 71.1787C101.57 71.2509 101.391 71.3672 101.243 71.5187C100.968 71.9407 100.843 72.4434 100.889 72.9453V74.4262C100.853 74.798 100.957 75.17 101.181 75.469C101.286 75.5756 101.414 75.6586 101.554 75.7126C101.694 75.7665 101.844 75.7901 101.994 75.7819C102.717 75.7902 103.145 75.3564 103.279 74.4804H103.266Z" fill="#FFE500"/>
<path d="M122.747 63.0723H124.97L125.992 74.2933H126.034L127.118 63.0723H129.621L130.706 74.2933H130.748L131.77 63.0723H133.73L132.249 77.6721H129.392L128.349 67.8276H128.307L127.264 77.6721H124.219L122.747 63.0723Z" fill="#FFE500"/>
<path d="M141.164 63.0723H143.458V77.6721H141.164V63.0723Z" fill="#FFE500"/>
<path d="M151.425 63.0723H154.303L156.535 71.8322H156.577V63.0723H158.621V77.6721H156.256L153.502 67.0142H153.461V77.6721H151.417L151.425 63.0723Z" fill="#FFE500"/>
<path d="M167.297 76.9292C166.713 76.2993 166.421 75.39 166.421 74.2095V66.5341C166.421 65.3536 166.713 64.4484 167.297 63.8144C168.003 63.201 168.907 62.8633 169.842 62.8633C170.777 62.8633 171.68 63.201 172.386 63.8144C172.97 64.4442 173.262 65.3536 173.262 66.5341V67.7855H171.093V66.3881C171.093 65.4287 170.697 64.949 169.904 64.949C169.112 64.949 168.715 65.4287 168.715 66.3881V74.3763C168.715 75.3218 169.112 75.7946 169.904 75.7946C170.697 75.7946 171.093 75.3218 171.093 74.3763V71.5189H169.946V69.4332H173.262V74.2095C173.262 75.39 172.97 76.2951 172.386 76.9292C171.68 77.5425 170.777 77.8803 169.842 77.8803C168.907 77.8803 168.003 77.5425 167.297 76.9292Z" fill="#FFE500"/>
<path d="M181.459 76.9289C180.888 76.299 180.604 75.3896 180.604 74.2091V73.3749H182.773V74.376C182.773 75.3215 183.169 75.7943 183.962 75.7943C184.125 75.805 184.289 75.7799 184.442 75.7208C184.595 75.6618 184.733 75.5701 184.846 75.4522C185.078 75.1279 185.186 74.7313 185.151 74.3343C185.162 73.7682 185.018 73.2099 184.734 72.72C184.304 72.0909 183.784 71.5287 183.19 71.0514C182.411 70.4108 181.742 69.6471 181.209 68.7905C180.827 68.0898 180.633 67.3024 180.646 66.5046C180.583 65.5325 180.897 64.5736 181.522 63.8266C181.854 63.4959 182.252 63.2399 182.691 63.0759C183.13 62.9119 183.599 62.8435 184.066 62.8755C184.528 62.841 184.991 62.9083 185.423 63.0726C185.856 63.237 186.247 63.4944 186.569 63.8266C187.132 64.4564 187.403 65.3658 187.403 66.5463V67.1595H185.234V66.4087C185.267 66.0215 185.164 65.6349 184.942 65.3158C184.837 65.2004 184.708 65.1095 184.564 65.0497C184.42 64.9899 184.264 64.9625 184.108 64.9695C183.34 64.9695 182.961 65.4367 182.961 66.3669C182.957 66.8901 183.101 67.4036 183.378 67.8478C183.817 68.4728 184.341 69.0343 184.934 69.5163C185.723 70.152 186.393 70.9215 186.915 71.7897C187.29 72.5327 187.476 73.3564 187.458 74.1883C187.458 75.3841 187.161 76.3018 186.569 76.9414C186.233 77.2748 185.829 77.5328 185.385 77.6982C184.942 77.8636 184.468 77.9327 183.995 77.9008C182.875 77.8869 182.029 77.5629 181.459 76.9289Z" fill="#FFE500"/>
</g>
</g>
<defs>
<filter id="filter0_d_30_979" x="0" y="0" width="215.545" height="85.9082" filterUnits="userSpaceOnUse" color-interpolation-filters="sRGB">
<feFlood flood-opacity="0" result="BackgroundImageFix"/>
<feColorMatrix in="SourceAlpha" type="matrix" values="0 0 0 0 0 0 0 0 0 0 0 0 0 0 0 0 0 0 127 0" result="hardAlpha"/>
<feOffset dy="4"/>
<feGaussianBlur stdDeviation="2"/>
<feComposite in2="hardAlpha" operator="out"/>
<feColorMatrix type="matrix" values="0 0 0 0 0 0 0 0 0 0 0 0 0 0 0 0 0 0 0.25 0"/>
<feBlend mode="normal" in2="BackgroundImageFix" result="effect1_dropShadow_30_979"/>
<feBlend mode="normal" in="SourceGraphic" in2="effect1_dropShadow_30_979" result="shape"/>
</filter>
<filter id="filter1_i_30_979" x="4" y="0" width="207.545" height="48.8838" filterUnits="userSpaceOnUse" color-interpolation-filters="sRGB">
<feFlood flood-opacity="0" result="BackgroundImageFix"/>
<feBlend mode="normal" in="SourceGraphic" in2="BackgroundImageFix" result="shape"/>
<feColorMatrix in="SourceAlpha" type="matrix" values="0 0 0 0 0 0 0 0 0 0 0 0 0 0 0 0 0 0 127 0" result="hardAlpha"/>
<feOffset dy="4"/>
<feGaussianBlur stdDeviation="2"/>
<feComposite in2="hardAlpha" operator="arithmetic" k2="-1" k3="1"/>
<feColorMatrix type="matrix" values="0 0 0 0 0 0 0 0 0 0 0 0 0 0 0 0 0 0 0.25 0"/>
<feBlend mode="normal" in2="shape" result="effect1_innerShadow_30_979"/>
</filter>
<filter id="filter2_i_30_979" x="22.2373" y="62.8633" width="165.221" height="19.0449" filterUnits="userSpaceOnUse" color-interpolation-filters="sRGB">
<feFlood flood-opacity="0" result="BackgroundImageFix"/>
<feBlend mode="normal" in="SourceGraphic" in2="BackgroundImageFix" result="shape"/>
<feColorMatrix in="SourceAlpha" type="matrix" values="0 0 0 0 0 0 0 0 0 0 0 0 0 0 0 0 0 0 127 0" result="hardAlpha"/>
<feOffset dy="4"/>
<feGaussianBlur stdDeviation="2"/>
<feComposite in2="hardAlpha" operator="arithmetic" k2="-1" k3="1"/>
<feColorMatrix type="matrix" values="0 0 0 0 0.968892 0 0 0 0 0.970833 0 0 0 0 0.87375 0 0 0 0.25 0"/>
<feBlend mode="normal" in2="shape" result="effect1_innerShadow_30_979"/>
</filter>
</defs>
</svg>
