<svg width="368" height="72" viewBox="0 0 368 72" fill="none" xmlns="http://www.w3.org/2000/svg">
<path fill-rule="evenodd" clip-rule="evenodd" d="M9.26428 6.32H62.7357C63.5046 6.32226 64.2414 6.62862 64.7853 7.17221C65.3292 7.71581 65.6359 8.45248 65.6385 9.22142V62.7785C65.6359 63.5475 65.3292 64.2841 64.7853 64.8277C64.2414 65.3713 63.5046 65.6777 62.7357 65.68H48.3957C47.9131 65.6784 47.4494 65.8679 47.106 66.207C46.7626 66.5461 46.5674 67.0073 46.5628 67.49V70.1899C46.5674 70.6726 46.7626 71.1338 47.106 71.4729C47.4494 71.812 47.9131 72.0015 48.3957 72H68.5714C69.4799 71.9973 70.3504 71.6352 70.9928 70.9928C71.6352 70.3504 71.9973 69.4799 72 68.5714V3.42857C71.9973 2.52007 71.6352 1.64953 70.9928 1.00712C70.3504 0.364709 69.4799 0.00263827 68.5714 0L3.42857 0C2.52007 0.00263827 1.64953 0.364709 1.00712 1.00712C0.364709 1.64953 0.00263827 2.52007 3.46832e-10 3.42857L3.46833e-10 54.8671C-9.41124e-06 55.3512 0.191525 55.8157 0.532784 56.1591C0.874043 56.5025 1.33731 56.6969 1.82143 56.7H4.53571C5.02008 56.6973 5.48371 56.503 5.82528 56.1596C6.16684 55.8162 6.35857 55.3515 6.35857 54.8671V54.6257V9.22142C6.36121 8.45199 6.66833 7.71488 7.21281 7.17121C7.75728 6.62753 8.49484 6.3215 9.26428 6.32Z" fill="#222831"/>
<path d="M57.7571 11.9316H14.2429C12.9663 11.9316 11.9315 12.9665 11.9315 14.2431V57.7573C11.9315 59.0339 12.9663 60.0688 14.2429 60.0688H57.7571C59.0337 60.0688 60.0686 59.0339 60.0686 57.7573V14.2431C60.0686 12.9665 59.0337 11.9316 57.7571 11.9316Z" fill="#222831"/>
<path fill-rule="evenodd" clip-rule="evenodd" d="M46.9714 47.756L32.6242 47.6903C30.9942 47.6832 27.9471 47.8975 26.5843 47.5389C25.6447 47.1481 24.8419 46.4878 24.2772 45.6413C23.7125 44.7948 23.4111 43.8 23.4111 42.7825C23.4111 41.7649 23.7125 40.7701 24.2772 39.9236C24.8419 39.0771 25.6447 38.4168 26.5843 38.026C26.7271 37.7989 29.7271 37.8832 30.1814 37.8732H47.6557C48.0357 37.8732 48.1685 37.9018 48.53 37.7703C52.3557 36.3718 54.3871 30.9418 49.2585 27.9789C48.22 27.3818 48.0057 27.4575 46.8714 27.4575H24.8357C24.5489 27.4818 24.2633 27.3988 24.0343 27.2246C23.7764 27.0673 23.5723 26.8354 23.4489 26.5598C23.3255 26.2841 23.2885 25.9775 23.3428 25.6803C23.3945 25.3155 23.5761 24.9817 23.8544 24.7402C24.1326 24.4987 24.4887 24.3658 24.8571 24.366C24.9529 24.3655 25.0486 24.3742 25.1428 24.3918H49.1685C49.3505 24.3967 49.5326 24.3819 49.7114 24.3475C50.1239 24.2501 50.4907 24.0145 50.7508 23.6799C51.011 23.3452 51.1488 22.9317 51.1415 22.5079C51.1341 22.0841 50.982 21.6756 50.7105 21.3501C50.4389 21.0247 50.0642 20.802 49.6485 20.7189C49.4543 20.6951 49.2583 20.6879 49.0628 20.6975H24.0443C17.9871 22.4875 18.6157 29.3775 23.4885 30.9832C23.8032 31.1013 24.1386 31.1538 24.4743 31.1375H47.0142C47.5857 31.1375 48.0571 31.3318 48.4014 31.826C48.5758 32.041 48.6825 32.303 48.7079 32.5786C48.7333 32.8543 48.6764 33.1313 48.5442 33.3746C48.4572 33.572 48.331 33.7497 48.1734 33.8971C48.0158 34.0444 47.8299 34.1582 47.6271 34.2318C47.5503 34.2682 47.4716 34.3006 47.3914 34.3289H25.7143C25.4736 34.3105 25.2324 34.3569 25.0157 34.4632C18.06 37.1875 18.43 48.5289 24.6443 51.0632C25.3585 51.356 25.5671 51.316 26.32 51.316H48.5928C53.1185 50.8675 53.7357 42.256 48.5928 40.976H32.4C32.3914 40.976 32.3657 40.976 32.3742 40.976C32.1829 40.9689 31.9913 40.9823 31.8028 41.016C31.3838 41.102 31.0072 41.3299 30.7368 41.6614C30.4664 41.9929 30.3187 42.4075 30.3187 42.8353C30.3187 43.2631 30.4664 43.6778 30.7368 44.0092C31.0072 44.3407 31.3838 44.5687 31.8028 44.6546V44.6946H46.9114C47.1514 44.706 47.3071 44.7389 47.5385 44.7632C47.8486 44.8631 48.119 45.0589 48.3108 45.3223C48.5027 45.5856 48.606 45.9031 48.606 46.2289C48.606 46.5547 48.5027 46.8721 48.3108 47.1355C48.119 47.3989 47.8486 47.5946 47.5385 47.6946C47.3551 47.7512 47.1626 47.772 46.9714 47.756Z" fill="white"/>
<path d="M3.0286 72.001C2.4086 72.001 1.93955 71.8243 1.62145 71.471C1.30336 71.1177 1.14384 70.612 1.14288 69.9539V69.4882H2.35431V70.0467C2.35431 70.5743 2.57526 70.8382 3.01717 70.8382C3.10889 70.8444 3.20086 70.8304 3.28654 70.797C3.37222 70.7637 3.4495 70.7119 3.51288 70.6453C3.64115 70.4642 3.70089 70.2435 3.68145 70.0224C3.68737 69.7064 3.60686 69.3947 3.4486 69.121C3.21063 68.7681 2.92179 68.4523 2.59145 68.1839C2.15572 67.8268 1.7821 67.4001 1.48574 66.921C1.27252 66.5306 1.16423 66.0915 1.17145 65.6467C1.17145 65.0029 1.33431 64.5044 1.66003 64.151C1.98574 63.7977 2.45907 63.621 3.08002 63.621C3.69241 63.621 4.15621 63.7977 4.47145 64.151C4.78669 64.5044 4.94383 65.0105 4.94288 65.6696V66.001H3.72717V65.5824C3.74592 65.3687 3.69097 65.1549 3.57145 64.9767C3.51139 64.9111 3.43731 64.8597 3.35471 64.8266C3.27211 64.7935 3.18311 64.7794 3.09431 64.7853C2.66764 64.7853 2.45431 65.0453 2.45431 65.5653C2.45394 65.8576 2.53668 66.144 2.69288 66.391C2.93657 66.7408 3.22851 67.0544 3.56002 67.3224C4.09622 67.7882 4.46479 68.211 4.66574 68.591C4.87532 69.0055 4.97935 69.4653 4.9686 69.9296C4.9686 70.5963 4.80383 71.1086 4.47431 71.4667C4.14479 71.8248 3.66288 72.0029 3.0286 72.001ZM6.10859 63.7367H7.39431V70.7153H9.49574V71.8796H6.10859V63.7367ZM10.5272 63.7367H11.8129V71.8796H10.5272V63.7367ZM14.9814 72.001C14.3681 72.001 13.9005 71.8263 13.5786 71.4767C13.2567 71.1272 13.0957 70.6353 13.0957 70.001V65.6239C13.0957 64.9867 13.2567 64.4939 13.5786 64.1453C13.9005 63.7967 14.3681 63.622 14.9814 63.621C15.5938 63.621 16.0614 63.7958 16.3843 64.1453C16.7072 64.4948 16.8681 64.9877 16.8672 65.6239V66.481H15.6572V65.5382C15.6572 65.0324 15.4429 64.781 15.0157 64.781C14.5886 64.781 14.3757 65.0324 14.3757 65.5382V70.0882C14.3757 70.5853 14.59 70.8339 15.0157 70.8339C15.4414 70.8339 15.6572 70.5853 15.6572 70.0882V68.8439H16.8672V70.001C16.8672 70.6382 16.7062 71.131 16.3843 71.4796C16.0624 71.8282 15.5948 72.002 14.9814 72.001ZM18.05 63.7367H21.5414V64.8996H19.33V67.0539H21.0872V68.2182H19.33V70.7153H21.5414V71.8796H18.05V63.7367ZM26.3672 72.001C25.7472 72.001 25.2738 71.8243 24.9472 71.471C24.6205 71.1177 24.4576 70.6115 24.4586 69.9524V65.6667C24.4586 65.0067 24.6214 64.5005 24.9472 64.1482C25.2729 63.7958 25.7462 63.6191 26.3672 63.6182C26.9881 63.6182 27.4643 63.7948 27.7957 64.1482C28.1272 64.5015 28.29 65.0077 28.2843 65.6667V66.3653H27.0729V65.5853C27.0729 65.0496 26.8529 64.7824 26.41 64.7824C25.9672 64.7824 25.7457 65.0496 25.7457 65.5853V70.0439C25.7457 70.5715 25.9672 70.8353 26.41 70.8353C26.8529 70.8353 27.0729 70.571 27.0729 70.0439V68.4524H26.4286V67.2867H28.2857V69.9524C28.2857 70.6105 28.1229 71.1167 27.7972 71.471C27.4714 71.8253 26.9952 72.002 26.3686 72.001H26.3672ZM31.38 72.001C30.7581 72.001 30.2848 71.8243 29.96 71.471C29.6352 71.1177 29.4724 70.6115 29.4714 69.9524V63.7382H30.7572V70.0467C30.7375 70.262 30.7974 70.477 30.9257 70.651C31.0575 70.7719 31.2298 70.8389 31.4086 70.8389C31.5874 70.8389 31.7597 70.7719 31.8914 70.651C32.0202 70.4772 32.0807 70.2622 32.0614 70.0467V63.7382H33.2857V69.9539C33.2857 70.612 33.1229 71.1182 32.7972 71.4724C32.4714 71.8267 31.9991 72.0029 31.38 72.001ZM35.7871 68.4153L34.2386 63.7367H35.6014L36.4743 66.7282H36.4971L37.37 63.7367H38.6157L37.0672 68.4153V71.8839H35.7814V68.4167L35.7871 68.4153ZM41.2771 72.001C40.6552 72.001 40.1857 71.8243 39.8686 71.471C39.5514 71.1177 39.3924 70.6115 39.3914 69.9524V69.4867H40.6014V70.0453C40.6014 70.5729 40.8224 70.8367 41.2643 70.8367C41.356 70.8432 41.4481 70.8292 41.5338 70.7959C41.6195 70.7625 41.6967 70.7106 41.76 70.6439C41.8888 70.4631 41.9486 70.2421 41.9286 70.021C41.9352 69.7049 41.8546 69.393 41.6957 69.1196C41.4577 68.7667 41.1689 68.4509 40.8386 68.1824C40.4036 67.8246 40.0301 67.398 39.7329 66.9196C39.5196 66.5292 39.4113 66.0901 39.4186 65.6453C39.4186 65.0015 39.5814 64.5029 39.9071 64.1496C40.2329 63.7963 40.7062 63.6196 41.3271 63.6196C41.9405 63.6196 42.4043 63.7963 42.7186 64.1496C43.0329 64.5029 43.19 65.0091 43.19 65.6682V66.001H41.9786V65.5824C41.9966 65.3659 41.939 65.1499 41.8157 64.971C41.7557 64.9053 41.6816 64.854 41.599 64.8209C41.5164 64.7878 41.4274 64.7736 41.3386 64.7796C40.91 64.7796 40.6986 65.0396 40.6986 65.5596C40.6982 65.8519 40.7809 66.1383 40.9371 66.3853C41.1813 66.7348 41.4732 67.0483 41.8043 67.3167C42.3405 67.7824 42.709 68.2053 42.91 68.5853C43.1203 68.9995 43.2243 69.4595 43.2129 69.9239C43.2129 70.5905 43.0481 71.1029 42.7186 71.461C42.389 71.8191 41.9086 71.9991 41.2771 72.001Z" fill="#222831"/>
<path d="M100.55 63.9999C96.4238 63.9999 93.3021 62.8197 91.185 60.4594C89.068 58.099 88.0063 54.7207 87.9999 50.3244V47.2133H96.0625V50.9447C96.0625 54.4694 97.5331 56.2317 100.474 56.2317C101.085 56.2734 101.697 56.1796 102.267 55.9569C102.837 55.7342 103.351 55.3882 103.773 54.9433C104.627 53.7338 105.025 52.2591 104.895 50.7825C104.935 48.671 104.399 46.5888 103.345 44.7607C101.762 42.4031 99.8394 40.2935 97.6408 38.5003C94.7408 36.1151 92.2542 33.2645 90.2818 30.064C88.8627 27.4559 88.142 24.5228 88.1901 21.5514C88.1901 17.2506 89.274 13.92 91.4418 11.5596C93.6095 9.19925 96.7598 8.01908 100.892 8.01908C104.968 8.01908 108.055 9.19925 110.153 11.5596C112.251 13.92 113.297 17.3015 113.291 21.7041V23.9182H105.199V21.122C105.324 19.694 104.959 18.2661 104.163 17.0756C103.763 16.6369 103.27 16.2941 102.721 16.0728C102.171 15.8514 101.579 15.7571 100.988 15.7968C98.1479 15.7968 96.7281 17.5337 96.7281 21.0075C96.7256 22.9601 97.2763 24.8731 98.3159 26.5235C99.9377 28.8603 101.881 30.9551 104.087 32.7457C107.656 35.8568 110.109 38.6816 111.446 41.2201C112.841 43.9888 113.533 47.0604 113.462 50.1622C113.462 54.6157 112.365 58.0385 110.172 60.4307C107.979 62.8229 104.772 64.0126 100.55 63.9999ZM121.049 8.79208H129.606V55.411H143.592V63.1887H121.049V8.79208ZM150.456 8.79208H159.013V63.1887H150.456V8.79208ZM180.102 63.9999C176.02 63.9999 172.907 62.8324 170.765 60.4975C168.623 58.1626 167.551 54.8765 167.551 50.6393V21.3987C167.551 17.1424 168.623 13.85 170.765 11.5215C172.907 9.19291 176.02 8.02544 180.102 8.01908C184.177 8.01908 187.29 9.18655 189.438 11.5215C191.587 13.8564 192.658 17.1488 192.652 21.3987V27.1247H184.599V20.8262C184.599 17.4478 183.173 15.7682 180.33 15.7682C177.487 15.7682 176.07 17.4478 176.07 20.8262V51.2214C176.07 54.5425 177.497 56.203 180.33 56.203C183.163 56.203 184.599 54.5425 184.599 51.2214V42.9093H192.652V50.6393C192.652 54.8956 191.581 58.1881 189.438 60.5166C187.296 62.8452 184.184 64.0063 180.102 63.9999ZM200.524 8.79208H223.761V16.5603H209.043V30.9516H220.738V38.7293H209.043V55.411H223.761V63.1887H200.524V8.79208ZM255.879 63.9999C251.752 63.9999 248.602 62.8197 246.428 60.4594C244.254 58.099 243.17 54.7175 243.176 50.3149V21.685C243.176 17.2761 244.26 13.8946 246.428 11.5405C248.596 9.18654 251.746 8.00636 255.879 8C260.011 8 263.181 9.18018 265.386 11.5405C267.592 13.9009 268.676 17.2824 268.638 21.685V26.3517H260.575V21.1411C260.575 17.5623 259.111 15.7778 256.164 15.7778C253.216 15.7778 251.743 17.5623 251.743 21.1411V50.9256C251.743 54.4503 253.216 56.2126 256.164 56.2126C259.111 56.2126 260.575 54.4471 260.575 50.9256V40.2944H256.287V32.5071H268.648V50.3149C268.648 54.7111 267.564 58.0926 265.396 60.4594C263.228 62.8261 260.059 64.0063 255.888 63.9999H255.879ZM289.241 63.9999C285.102 63.9999 281.952 62.8197 279.791 60.4594C277.629 58.099 276.545 54.7175 276.539 50.3149V8.80163H285.096V50.9447C284.965 52.3828 285.364 53.8191 286.218 54.9815C287.095 55.7889 288.242 56.2369 289.432 56.2369C290.622 56.2369 291.768 55.7889 292.645 54.9815C293.502 53.8205 293.905 52.384 293.777 50.9447V8.80163H301.925V50.3244C301.925 54.7207 300.841 58.1021 298.673 60.4689C296.505 62.8356 293.361 64.0126 289.241 63.9999ZM318.573 40.0463L308.266 8.79208H317.337L323.146 28.7757H323.298L329.107 8.79208H337.398L327.092 40.0463V63.2173H318.535V40.0558L318.573 40.0463ZM355.111 63.9999C350.972 63.9999 347.847 62.8197 345.737 60.4594C343.626 58.099 342.567 54.7175 342.561 50.3149V47.2037H350.614V50.9352C350.614 54.4598 352.085 56.2221 355.026 56.2221C355.636 56.2652 356.249 56.172 356.819 55.9492C357.39 55.7265 357.904 55.3797 358.325 54.9338C359.182 53.726 359.58 52.2499 359.447 50.7729C359.491 48.661 358.954 46.5776 357.897 44.7511C356.313 42.3935 354.391 40.2839 352.192 38.4907C349.298 36.1001 346.812 33.2505 344.833 30.0545C343.414 27.4463 342.694 24.5133 342.742 21.5419C342.742 17.2411 343.826 13.9105 345.993 11.5501C348.161 9.18973 351.311 8.00952 355.444 8.00952C359.526 8.00952 362.613 9.18973 364.705 11.5501C366.796 13.9105 367.842 17.292 367.842 21.6946V23.9182H359.78V21.122C359.899 19.6757 359.516 18.2324 358.696 17.0375C358.296 16.5987 357.803 16.256 357.253 16.0346C356.703 15.8132 356.111 15.7189 355.52 15.7587C352.668 15.7587 351.261 17.4955 351.261 20.9693C351.258 22.9219 351.809 24.8349 352.848 26.4853C354.473 28.8198 356.416 30.9142 358.62 32.7075C362.188 35.8186 364.641 38.6434 365.979 41.1819C367.378 43.949 368.071 47.0217 367.994 50.124C367.994 54.5775 366.898 58.0004 364.705 60.3925C362.511 62.7847 359.314 63.9872 355.111 63.9999Z" fill="#222831"/>
</svg>
